<?xml version="1.0" standalone="no"?><!DOCTYPE svg PUBLIC "-//W3C//DTD SVG 1.1//EN" "http://www.w3.org/Graphics/SVG/1.1/DTD/svg11.dtd"><svg xmlns:xlink="http://www.w3.org/1999/xlink" version="1.1" style="font-family:'lucida grande', 'lucida sans unicode', arial, helvetica, sans-serif;font-size:12px;" xmlns="http://www.w3.org/2000/svg" width="600" height="400"><desc>Created with Highcharts 4.2.7</desc><defs><clipPath id="highcharts-4"><rect x="1" y="1" width="578" height="321"></rect></clipPath></defs><rect x="10" y="10" width="580" height="323" fill="#ffffff"></rect><rect x="10" y="10" width="580" height="323" stroke="#026FC1" stroke-width="2" fill="none"></rect><g class="highcharts-series-group"><g class="highcharts-series highcharts-series-0" transform="translate(10,10) scale(1 1)"><path fill="#50B432" d="M 289.972605954103 42.500002789716575 A 134.5 134.5 0 1 1 163.398415552568 131.5875698139844 L 290 177 A 0 0 0 1 0 290 177 Z" stroke="#FFFFFF" stroke-width="1" stroke-linejoin="round" transform="translate(0,0)"></path><path fill="#ED561B" d="M 163.4438912759722 131.46099095685045 A 134.5 134.5 0 0 1 264.67918657022545 44.90493420549521 L 290 177 A 0 0 0 0 0 290 177 Z" stroke="#FFFFFF" stroke-width="1" stroke-linejoin="round" transform="translate(0,0)"></path><path fill="#DDDF00" d="M 264.8112942744098 44.87967944381296 A 134.5 134.5 0 0 1 273.04590434836524 43.572833948122764 L 290 177 A 0 0 0 0 0 290 177 Z" stroke="#FFFFFF" stroke-width="1" stroke-linejoin="round" transform="translate(0,0)"></path><path fill="#24CBE5" d="M 273.1793399692264 43.555946568874276 A 134.5 134.5 0 0 1 281.47989067865683 42.770130979903115 L 290 177 A 0 0 0 0 0 290 177 Z" stroke="#FFFFFF" stroke-width="1" stroke-linejoin="round" transform="translate(0,0)"></path><path fill="#64E572" d="M 281.61412478535965 42.76167798693072 A 134.5 134.5 0 0 1 288.1992359416513 42.512055377419955 L 290 177 A 0 0 0 0 0 290 177 Z" stroke="#FFFFFF" stroke-width="1" stroke-linejoin="round" transform="translate(0,0)"></path><path fill="#FF9655" d="M 288.3337247642412 42.51032185762844 A 134.5 134.5 0 0 1 289.81318219832934 42.50012974315186 L 290 177 A 0 0 0 0 0 290 177 Z" stroke="#FFFFFF" stroke-width="1" stroke-linejoin="round" transform="translate(0,0)"></path></g><g class="highcharts-markers highcharts-series-0" transform="translate(10,10) scale(1 1)"></g></g><g class="highcharts-data-labels highcharts-series-0" transform="translate(10,10) scale(1 1)" opacity="1"><path fill="none" d="M 389.5883639611193 311.08562851641636 C 384.5883639611193 311.08562851641636 379.988321944773 304.5404307770161 373.663264172297 295.5407838853409 L 367.33820639982093 286.54113699366565" stroke="#50B432" stroke-width="1"></path><path fill="none" d="M 135.44064723328066 108 C 140.44064723328066 108 188.3613804363263 57.49646638359512 195.5053089679583 65.86093200519547 L 202.64923749959033 74.22539762679581" stroke="#ED561B" stroke-width="1"></path><path fill="none" d="M 148.9705914149444 84 C 153.9705914149444 84 265.5180062212039 21.926774696860917 267.23878533664646 32.791346443407434 L 268.959564452089 43.65591818995395" stroke="#DDDF00" stroke-width="1"></path><path fill="none" d="M 168.8621508723362 60 C 173.8621508723362 60 275.27204896565263 20.694552539617973 276.30724041215626 31.645734150251855 L 277.3424318586599 42.596915760885736" stroke="#24CBE5" stroke-width="1"></path><path fill="none" d="M 199.44300145517025 36 C 204.44300145517025 36 284.1014864121553 20.111197531747777 284.5160784215246 31.10338173079426 L 284.9306704308939 42.095565929840745" stroke="#64E572" stroke-width="1"></path><path fill="none" d="M 283.9664228176623 12 C 288.9664228176623 12 289.01668796939 20.00308917601454 289.08580255301115 31.00287204543205 L 289.1549171366323 42.00265491484956" stroke="#FF9655" stroke-width="1"></path><g style="cursor:pointer;" transform="translate(395,301)"><text x="5" style="font-size:12px;font-weight:bold;font-family:'arial', sans-serif;color:#000;text-shadow:none;fill:#000;text-rendering:geometricprecision;" y="17"><tspan>80.5%</tspan></text></g><g style="cursor:pointer;" transform="translate(77,98)"><text x="5" style="font-size:12px;font-weight:bold;font-family:'arial', sans-serif;color:#000;text-shadow:none;fill:#000;text-rendering:geometricprecision;" y="17"><tspan>16.5%</tspan></text></g><g style="cursor:pointer;" transform="translate(100,74)"><text x="5" style="font-size:12px;font-weight:bold;font-family:'arial', sans-serif;color:#000;text-shadow:none;fill:#000;text-rendering:geometricprecision;" y="17"><tspan>1.0%</tspan></text></g><g style="cursor:pointer;" transform="translate(120,50)"><text x="5" style="font-size:12px;font-weight:bold;font-family:'arial', sans-serif;color:#000;text-shadow:none;fill:#000;text-rendering:geometricprecision;" y="17"><tspan>1.0%</tspan></text></g><g style="cursor:pointer;" transform="translate(150,26)"><text x="5" style="font-size:12px;font-weight:bold;font-family:'arial', sans-serif;color:#000;text-shadow:none;fill:#000;text-rendering:geometricprecision;" y="17"><tspan>0.8%</tspan></text></g><g style="cursor:pointer;" transform="translate(235,2)"><text x="5" style="font-size:12px;font-weight:bold;font-family:'arial', sans-serif;color:#000;text-shadow:none;fill:#000;text-rendering:geometricprecision;" y="17"><tspan>0.2%</tspan></text></g></g><g class="highcharts-legend" transform="translate(58,345)"><g><g><g class="highcharts-legend-item" transform="translate(8,3)"><text x="21" style="color:#333;font-size:9pt;font-weight:normal;cursor:pointer;font-family:'lucida grande','lucida sans unicode',arial,helvetica,sans-serif;text-transform:none;fill:#333;" text-anchor="start" y="15">Sunnīti</text><rect x="0" y="4" width="16" height="12" fill="#50B432"></rect></g><g class="highcharts-legend-item" transform="translate(92.46875,3)"><text x="21" y="15" style="color:#333;font-size:9pt;font-weight:normal;cursor:pointer;font-family:'lucida grande','lucida sans unicode',arial,helvetica,sans-serif;text-transform:none;fill:#333;" text-anchor="start">Šiaīti</text><rect x="0" y="4" width="16" height="12" fill="#ED561B"></rect></g><g class="highcharts-legend-item" transform="translate(164.8125,3)"><text x="21" y="15" style="color:#333;font-size:9pt;font-weight:normal;cursor:pointer;font-family:'lucida grande','lucida sans unicode',arial,helvetica,sans-serif;text-transform:none;fill:#333;" text-anchor="start">Korānisti</text><rect x="0" y="4" width="16" height="12" fill="#DDDF00"></rect></g><g class="highcharts-legend-item" transform="translate(258.609375,3)"><text x="21" y="15" style="color:#333;font-size:9pt;font-weight:normal;cursor:pointer;font-family:'lucida grande','lucida sans unicode',arial,helvetica,sans-serif;text-transform:none;fill:#333;" text-anchor="start"><tspan>Garīgi, bet ne reliģiozi</tspan></text><rect x="0" y="4" width="16" height="12" fill="#24CBE5"></rect></g><g class="highcharts-legend-item" transform="translate(433.734375,3)"><text x="21" y="15" style="color:#333;font-size:9pt;font-weight:normal;cursor:pointer;font-family:'lucida grande','lucida sans unicode',arial,helvetica,sans-serif;text-transform:none;fill:#333;" text-anchor="start">Citi</text><rect x="0" y="4" width="16" height="12" fill="#64E572"></rect></g><g class="highcharts-legend-item" transform="translate(8,18)"><text x="21" y="15" style="color:#333;font-size:9pt;font-weight:normal;cursor:pointer;font-family:'lucida grande','lucida sans unicode',arial,helvetica,sans-serif;text-transform:none;fill:#333;" text-anchor="start">Kristieši</text><rect x="0" y="4" width="16" height="12" fill="#FF9655"></rect></g></g></g></g><g class="highcharts-tooltip" display="none" style="cursor:default;padding:0;pointer-events:none;white-space:nowrap;" transform="translate(0,0)"><path fill="none" d="M 3.5 0.5 L 13.5 0.5 C 16.5 0.5 16.5 0.5 16.5 3.5 L 16.5 13.5 C 16.5 16.5 16.5 16.5 13.5 16.5 L 3.5 16.5 C 0.5 16.5 0.5 16.5 0.5 13.5 L 0.5 3.5 C 0.5 0.5 0.5 0.5 3.5 0.5"  stroke="black" stroke-opacity="0.049999999999999996" stroke-width="5" transform="translate(1, 1)"></path><path fill="none" d="M 3.5 0.5 L 13.5 0.5 C 16.5 0.5 16.5 0.5 16.5 3.5 L 16.5 13.5 C 16.5 16.5 16.5 16.5 13.5 16.5 L 3.5 16.5 C 0.5 16.5 0.5 16.5 0.5 13.5 L 0.5 3.5 C 0.5 0.5 0.5 0.5 3.5 0.5"  stroke="black" stroke-opacity="0.09999999999999999" stroke-width="3" transform="translate(1, 1)"></path><path fill="none" d="M 3.5 0.5 L 13.5 0.5 C 16.5 0.5 16.5 0.5 16.5 3.5 L 16.5 13.5 C 16.5 16.5 16.5 16.5 13.5 16.5 L 3.5 16.5 C 0.5 16.5 0.5 16.5 0.5 13.5 L 0.5 3.5 C 0.5 0.5 0.5 0.5 3.5 0.5"  stroke="black" stroke-opacity="0.15" stroke-width="1" transform="translate(1, 1)"></path><path fill="rgb(249, 249, 249)" fill-opacity=" .85" d="M 3.5 0.5 L 13.5 0.5 C 16.5 0.5 16.5 0.5 16.5 3.5 L 16.5 13.5 C 16.5 16.5 16.5 16.5 13.5 16.5 L 3.5 16.5 C 0.5 16.5 0.5 16.5 0.5 13.5 L 0.5 3.5 C 0.5 0.5 0.5 0.5 3.5 0.5"></path><text x="8" style="font-size:12px;color:#000000;fill:#000000;" y="20"></text></g><text x="590" text-anchor="end" style="cursor:pointer;color:#909090;font-size:9px;fill:#909090;" y="395">meta-chart.com</text></svg>